<?xml version="1.0" encoding="UTF-8" standalone="no"?>
<!DOCTYPE svg PUBLIC "-//W3C//DTD SVG 1.1//EN" "http://www.w3.org/Graphics/SVG/1.1/DTD/svg11.dtd">
<svg width="100%" height="100%" viewBox="0 0 996 997" version="1.1" xmlns="http://www.w3.org/2000/svg" xmlns:xlink="http://www.w3.org/1999/xlink" xml:space="preserve" xmlns:serif="http://www.serif.com/" style="fill-rule:evenodd;clip-rule:evenodd;stroke-linejoin:round;stroke-miterlimit:1.41421;">
    <g transform="matrix(1,0,0,1,-870,-1269)">
        <g transform="matrix(0.938737,0,0,1,114.317,0)">
            <rect x="805" y="1269" width="1061" height="997" style="fill:none;"/>
            <clipPath id="_clip1">
                <rect x="805" y="1269" width="1061" height="997"/>
            </clipPath>
            <g clip-path="url(#_clip1)">
                <g id="wifi-slash" transform="matrix(54.5946,0,0,51.25,1253.55,1805.8)">
                    <clipPath id="_clip2">
                        <rect x="-8.216" y="-9.912" width="19.434" height="18.892"/>
                    </clipPath>
                    <g clip-path="url(#_clip2)">
                        <g transform="matrix(1,0,0,1,-12,-12)">
                            <path d="M6.92,5.51L3.71,2.29C3.522,2.102 3.266,1.996 3,1.996C2.449,1.996 1.996,2.449 1.996,3C1.996,3.266 2.102,3.522 2.29,3.71L4.56,6C3.407,6.655 2.345,7.459 1.4,8.39C1.015,8.777 1.015,9.413 1.4,9.8C1.587,9.991 1.843,10.099 2.11,10.1C2.372,10.099 2.624,9.995 2.81,9.81C3.763,8.865 4.856,8.072 6.05,7.46L7.54,9C6.301,9.542 5.174,10.312 4.22,11.27C4.002,11.46 3.876,11.735 3.876,12.025C3.876,12.573 4.327,13.025 4.876,13.025C5.17,13.025 5.45,12.895 5.64,12.67C6.61,11.705 7.791,10.979 9.09,10.55L10.71,12.16C9.324,12.427 8.049,13.103 7.05,14.1C6.832,14.29 6.706,14.565 6.706,14.855C6.706,15.403 7.157,15.855 7.706,15.855C8,15.855 8.28,15.725 8.47,15.5C9.4,14.551 10.671,14.011 12,14C12.211,14.001 12.422,14.017 12.63,14.05L20.29,21.71C20.478,21.899 20.733,22.006 21,22.006C21.267,22.006 21.522,21.899 21.71,21.71C21.899,21.522 22.006,21.267 22.006,21C22.006,20.733 21.899,20.478 21.71,20.29L6.92,5.51ZM12,16C10.354,16 9,17.354 9,19C9,20.646 10.354,22 12,22C13.646,22 15,20.646 15,19C15,17.354 13.646,16 12,16ZM12,20C11.451,20 11,19.549 11,19C11,18.451 11.451,18 12,18C12.549,18 13,18.451 13,19C13,19.549 12.549,20 12,20ZM22.61,8.39C19.375,5.158 14.833,3.576 10.29,4.1C9.783,4.156 9.394,4.589 9.394,5.1C9.394,5.652 9.848,6.106 10.4,6.106C10.437,6.106 10.473,6.104 10.51,6.1C14.449,5.65 18.386,7.017 21.2,9.81C21.387,9.996 21.641,10.101 21.905,10.101C22.454,10.101 22.906,9.649 22.906,9.1C22.906,8.834 22.799,8.578 22.61,8.39ZM18.36,12.63C18.542,12.788 18.775,12.875 19.016,12.875C19.565,12.875 20.016,12.424 20.016,11.875C20.016,11.639 19.932,11.41 19.78,11.23C18.444,9.879 16.774,8.906 14.94,8.41C14.825,8.366 14.703,8.343 14.58,8.343C14.031,8.343 13.58,8.794 13.58,9.343C13.58,9.831 13.938,10.252 14.42,10.33C15.91,10.743 17.268,11.536 18.36,12.63Z" style="fill:url(#_Linear3);fill-rule:nonzero;"/>
                        </g>
                    </g>
                </g>
            </g>
        </g>
    </g>
    <defs>
        <linearGradient id="_Linear3" x1="0" y1="0" x2="1" y2="0" gradientUnits="userSpaceOnUse" gradientTransform="matrix(24,9,-9,24,0,8)"><stop offset="0" style="stop-color:rgb(99,227,220);stop-opacity:1"/><stop offset="1" style="stop-color:rgb(18,84,194);stop-opacity:1"/></linearGradient>
    </defs>
</svg>
