<?xml version="1.0" encoding="UTF-8" standalone="no"?>
<!DOCTYPE svg PUBLIC "-//W3C//DTD SVG 1.1//EN" "http://www.w3.org/Graphics/SVG/1.1/DTD/svg11.dtd">
<svg width="100%" height="100%" viewBox="0 0 1371 222" version="1.1" xmlns="http://www.w3.org/2000/svg" xmlns:xlink="http://www.w3.org/1999/xlink" xml:space="preserve" xmlns:serif="http://www.serif.com/" style="fill-rule:evenodd;clip-rule:evenodd;stroke-linecap:round;stroke-linejoin:round;stroke-miterlimit:1.5;">
    <g transform="matrix(1,0,0,1,-737.204,-1994.58)">
        <g transform="matrix(1,0,0,1,47.8095,-9)">
            <g transform="matrix(1,0,0,1,25.378,531)">
                <path d="M780,1483L804.921,1559.7L885.567,1559.7L820.323,1607.1L845.244,1683.8L780,1636.4L714.756,1683.8L739.677,1607.1L674.433,1559.7L755.079,1559.7L780,1483Z" style="fill:rgb(173,173,173);stroke:rgb(173,173,173);stroke-width:20.83px;"/>
            </g>
            <g transform="matrix(1,0,0,1,310.034,531)">
                <path d="M780,1483L804.921,1559.7L885.567,1559.7L820.323,1607.1L845.244,1683.8L780,1636.4L714.756,1683.8L739.677,1607.1L674.433,1559.7L755.079,1559.7L780,1483Z" style="fill:rgb(173,173,173);stroke:rgb(173,173,173);stroke-width:20.83px;"/>
            </g>
            <g transform="matrix(1,0,0,1,594.691,531)">
                <path d="M780,1483L804.921,1559.7L885.567,1559.7L820.323,1607.1L845.244,1683.8L780,1636.4L714.756,1683.8L739.677,1607.1L674.433,1559.7L755.079,1559.7L780,1483Z" style="fill:rgb(173,173,173);stroke:rgb(173,173,173);stroke-width:20.83px;"/>
            </g>
            <g transform="matrix(1,0,0,1,1164,531)">
                <path d="M780,1483L804.921,1559.7L885.567,1559.7L820.323,1607.1L845.244,1683.8L780,1636.4L714.756,1683.8L739.677,1607.1L674.433,1559.7L755.079,1559.7L780,1483Z" style="fill:none;stroke:rgb(199,199,199);stroke-opacity:0.81;stroke-width:20.83px;"/>
            </g>
            <g transform="matrix(1,0,0,1,879.347,531)">
                <path d="M780,1483L804.921,1559.7L885.567,1559.7L820.323,1607.1L845.244,1683.8L780,1636.4L714.756,1683.8L739.677,1607.1L674.433,1559.7L755.079,1559.7L780,1483Z" style="fill:none;stroke:rgb(199,199,199);stroke-opacity:0.81;stroke-width:20.83px;"/>
            </g>
        </g>
    </g>
</svg>
